<svg xmlns:xlink="http://www.w3.org/1999/xlink" width="1280" xmlns="http://www.w3.org/2000/svg" height="720" id="screenshot-3a72b7e3-64a8-8096-8003-b94eb2f9cbc5" viewBox="0 0 1280 720" style="-webkit-print-color-adjust: exact;" fill="none" version="1.1"><g id="shape-3a72b7e3-64a8-8096-8003-b94eb2f9cbc5"><defs><clipPath class="frame-clip-def frame-clip" id="frame-clip-3a72b7e3-64a8-8096-8003-b94eb2f9cbc5-rumext-id-1"><rect rx="0" ry="0" x="0" y="0" width="1280" height="720.0000000000001" transform="matrix(1.000000, 0.000000, 0.000000, 1.000000, 0.000000, 0.000000)" style="fill: rgb(74, 74, 74); fill-opacity: 1;"/></clipPath></defs><g clip-path="url(#frame-clip-3a72b7e3-64a8-8096-8003-b94eb2f9cbc5-rumext-id-1)" fill="none"><clipPath class="frame-clip-def frame-clip" id="frame-clip-3a72b7e3-64a8-8096-8003-b94eb2f9cbc5-rumext-id-1"><rect rx="0" ry="0" x="0" y="0" width="1280" height="720.0000000000001" transform="matrix(1.000000, 0.000000, 0.000000, 1.000000, 0.000000, 0.000000)" style="fill: rgb(74, 74, 74); fill-opacity: 1;"/></clipPath><g class="fills" id="fills-3a72b7e3-64a8-8096-8003-b94eb2f9cbc5"><rect width="1280" height="720.0000000000001" class="frame-background" x="0" transform="matrix(1.000000, 0.000000, 0.000000, 1.000000, 0.000000, 0.000000)" style="fill: rgb(74, 74, 74); fill-opacity: 1;" ry="0" rx="0" y="0"/></g><g class="frame-children"><g id="shape-3a72b7e3-64a8-8096-8003-b94e9f632a4f" xmlns:xlink="http://www.w3.org/1999/xlink" width="1055" height="240" rx="0" ry="0" style="fill: rgb(0, 0, 0);"><g id="shape-3a72b7e3-64a8-8096-8003-b94e9f670be4"><g class="fills" id="fills-3a72b7e3-64a8-8096-8003-b94e9f670be4"><path rx="0" ry="0" d="M246.500,360.000C246.500,367.732,240.232,374.000,232.500,374.000C224.768,374.000,218.500,367.732,218.500,360.000C218.500,352.268,224.768,346.000,232.500,346.000C240.232,346.000,246.500,352.268,246.500,360.000ZZ" style="fill: rgb(241, 90, 41);"/></g></g><g id="shape-3a72b7e3-64a8-8096-8003-b94e9f674d95" rx="0" ry="0" style="fill: rgb(0, 0, 0);"><g id="shape-3a72b7e3-64a8-8096-8003-b94e9f68cf01"><g class="fills" id="fills-3a72b7e3-64a8-8096-8003-b94e9f68cf01"><path fill="none" rx="0" ry="0" d="M252.000,360.000C252.000,370.770,243.270,379.500,232.500,379.500C221.730,379.500,213.000,370.770,213.000,360.000C213.000,349.230,221.730,340.500,232.500,340.500C243.270,340.500,252.000,349.230,252.000,360.000ZZ" style="fill: none;"/></g><g id="strokes-3a72b7e3-64a8-8096-8003-b94e9f68cf01" class="strokes"><g class="stroke-shape"><path rx="0" ry="0" d="M252.000,360.000C252.000,370.770,243.270,379.500,232.500,379.500C221.730,379.500,213.000,370.770,213.000,360.000C213.000,349.230,221.730,340.500,232.500,340.500C243.270,340.500,252.000,349.230,252.000,360.000ZZ" style="fill: none; stroke-width: 4; stroke: rgb(247, 148, 30); stroke-opacity: 1;"/></g></g></g><g id="shape-3a72b7e3-64a8-8096-8003-b94e9f6928df" rx="0" ry="0" style="fill: rgb(0, 0, 0);"><g id="shape-3a72b7e3-64a8-8096-8003-b94e9f6a4aa4"><g class="fills" id="fills-3a72b7e3-64a8-8096-8003-b94e9f6a4aa4"><path fill="none" rx="0" ry="0" d="M262.500,360.000C262.500,376.569,249.069,390.000,232.500,390.000C215.931,390.000,202.500,376.569,202.500,360.000C202.500,343.431,215.931,330.000,232.500,330.000C249.069,330.000,262.500,343.431,262.500,360.000ZZ" style="fill: none;"/></g><g id="strokes-3a72b7e3-64a8-8096-8003-b94e9f6a4aa4" class="strokes"><g class="stroke-shape"><path rx="0" ry="0" d="M262.500,360.000C262.500,376.569,249.069,390.000,232.500,390.000C215.931,390.000,202.500,376.569,202.500,360.000C202.500,343.431,215.931,330.000,232.500,330.000C249.069,330.000,262.500,343.431,262.500,360.000ZZ" style="fill: none; stroke-width: 10; stroke: rgb(0, 0, 0); stroke-opacity: 1;"/></g></g></g><g id="shape-3a72b7e3-64a8-8096-8003-b94e9f6b8f0e"><g class="fills" id="fills-3a72b7e3-64a8-8096-8003-b94e9f6b8f0e"><path fill="none" rx="0" ry="0" d="M299.500,288.000C265.773,258.838,216.814,255.527,179.467,279.883C142.120,304.239,125.411,350.378,138.500,393.000L176.500,393.000C187.586,412.801,208.197,425.387,230.876,426.205C253.554,427.022,275.017,415.952,287.500,397.000M132.500,360.000L202.500,360.000" style="fill: none;"/></g><g id="strokes-3a72b7e3-64a8-8096-8003-b94e9f6b8f0e" class="strokes"><g class="stroke-shape"><path rx="0" ry="0" d="M299.500,288.000C265.773,258.838,216.814,255.527,179.467,279.883C142.120,304.239,125.411,350.378,138.500,393.000L176.500,393.000C187.586,412.801,208.197,425.387,230.876,426.205C253.554,427.022,275.017,415.952,287.500,397.000M132.500,360.000L202.500,360.000" style="fill: none; stroke-width: 10; stroke: rgb(0, 0, 0); stroke-opacity: 1;"/></g></g></g></g></g><g id="shape-3a72b7e3-64a8-8096-8003-b94e9f6c6489"><g class="fills" id="fills-3a72b7e3-64a8-8096-8003-b94e9f6c6489"><path rx="0" ry="0" d="M296.500,389.000C296.500,392.314,293.814,395.000,290.500,395.000C287.186,395.000,284.500,392.314,284.500,389.000C284.500,385.686,287.186,383.000,290.500,383.000C293.814,383.000,296.500,385.686,296.500,389.000ZZ" style="fill: rgb(247, 148, 30);"/></g></g><g id="shape-3a72b7e3-64a8-8096-8003-b94e9f6d0387" rx="0" ry="0" style="fill: rgb(0, 0, 0);"><g id="shape-3a72b7e3-64a8-8096-8003-b94e9f6e15ea"><g class="fills" id="fills-3a72b7e3-64a8-8096-8003-b94e9f6e15ea"><path fill="none" rx="0" ry="0" d="M300.500,389.000C300.500,394.523,296.023,399.000,290.500,399.000C284.977,399.000,280.500,394.523,280.500,389.000C280.500,383.477,284.977,379.000,290.500,379.000C296.023,379.000,300.500,383.477,300.500,389.000ZZ" style="fill: none;"/></g><g id="strokes-3a72b7e3-64a8-8096-8003-b94e9f6e15ea" class="strokes"><g class="stroke-shape"><path rx="0" ry="0" d="M300.500,389.000C300.500,394.523,296.023,399.000,290.500,399.000C284.977,399.000,280.500,394.523,280.500,389.000C280.500,383.477,284.977,379.000,290.500,379.000C296.023,379.000,300.500,383.477,300.500,389.000ZZ" style="fill: none; stroke-width: 3.2; stroke: rgb(0, 0, 0); stroke-opacity: 1;"/></g></g></g></g><g id="shape-3a72b7e3-64a8-8096-8003-b94e9f6efa83"><g class="fills" id="fills-3a72b7e3-64a8-8096-8003-b94e9f6efa83"><path rx="0" ry="0" d="M311.500,295.000C311.500,298.314,308.814,301.000,305.500,301.000C302.186,301.000,299.500,298.314,299.500,295.000C299.500,291.686,302.186,289.000,305.500,289.000C308.814,289.000,311.500,291.686,311.500,295.000ZZ" style="fill: rgb(247, 148, 30);"/></g></g><g id="shape-3a72b7e3-64a8-8096-8003-b94e9f6efa84" rx="0" ry="0" style="fill: rgb(0, 0, 0);"><g id="shape-3a72b7e3-64a8-8096-8003-b94e9f6f4b02" rx="0" ry="0" style="fill: rgb(0, 0, 0);"><g id="shape-3a72b7e3-64a8-8096-8003-b94e9f702f65"><g class="fills" id="fills-3a72b7e3-64a8-8096-8003-b94e9f702f65"><path fill="none" x="15" y="-94" rx="0" ry="0" d="M315.500,295.000C315.500,300.523,311.023,305.000,305.500,305.000C299.977,305.000,295.500,300.523,295.500,295.000C295.500,289.477,299.977,285.000,305.500,285.000C311.023,285.000,315.500,289.477,315.500,295.000ZZ" style="fill: none;"/></g><g id="strokes-3a72b7e3-64a8-8096-8003-b94e9f702f65" class="strokes"><g class="stroke-shape"><path x="15" y="-94" rx="0" ry="0" d="M315.500,295.000C315.500,300.523,311.023,305.000,305.500,305.000C299.977,305.000,295.500,300.523,295.500,295.000C295.500,289.477,299.977,285.000,305.500,285.000C311.023,285.000,315.500,289.477,315.500,295.000ZZ" style="fill: none; stroke-width: 3.2; stroke: rgb(0, 0, 0); stroke-opacity: 1;"/></g></g></g></g><g id="shape-3a72b7e3-64a8-8096-8003-b94e9f7107c1"><g class="fills" id="fills-3a72b7e3-64a8-8096-8003-b94e9f7107c1"><path fill="none" rx="0" ry="0" d="M165.500,432.000C199.227,461.162,248.186,464.473,285.533,440.117C322.880,415.761,339.589,369.622,326.500,327.000L288.500,327.000C277.414,307.199,256.803,294.613,234.124,293.795C211.446,292.978,189.983,304.048,177.500,323.000M332.500,360.000L262.500,360.000" style="fill: none;"/></g><g id="strokes-3a72b7e3-64a8-8096-8003-b94e9f7107c1" class="strokes"><g class="stroke-shape"><path rx="0" ry="0" d="M165.500,432.000C199.227,461.162,248.186,464.473,285.533,440.117C322.880,415.761,339.589,369.622,326.500,327.000L288.500,327.000C277.414,307.199,256.803,294.613,234.124,293.795C211.446,292.978,189.983,304.048,177.500,323.000M332.500,360.000L262.500,360.000" style="fill: none; stroke-width: 10; stroke: rgb(0, 0, 0); stroke-opacity: 1;"/></g></g></g></g><g id="shape-3a72b7e3-64a8-8096-8003-b94e9f71e458"><g class="fills" id="fills-3a72b7e3-64a8-8096-8003-b94e9f71e458"><path rx="0" ry="0" d="M180.500,331.000C180.500,334.314,177.814,337.000,174.500,337.000C171.186,337.000,168.500,334.314,168.500,331.000C168.500,327.686,171.186,325.000,174.500,325.000C177.814,325.000,180.500,327.686,180.500,331.000ZZ" style="fill: rgb(247, 148, 30);"/></g></g><g id="shape-3a72b7e3-64a8-8096-8003-b94e9f7234ce" rx="0" ry="0" style="fill: rgb(0, 0, 0);"><g id="shape-3a72b7e3-64a8-8096-8003-b94e9f72e2f9"><g class="fills" id="fills-3a72b7e3-64a8-8096-8003-b94e9f72e2f9"><path fill="none" x="-116" y="-58" rx="0" ry="0" d="M184.500,331.000C184.500,336.523,180.023,341.000,174.500,341.000C168.977,341.000,164.500,336.523,164.500,331.000C164.500,325.477,168.977,321.000,174.500,321.000C180.023,321.000,184.500,325.477,184.500,331.000ZZ" style="fill: none;"/></g><g id="strokes-3a72b7e3-64a8-8096-8003-b94e9f72e2f9" class="strokes"><g class="stroke-shape"><path x="-116" y="-58" rx="0" ry="0" d="M184.500,331.000C184.500,336.523,180.023,341.000,174.500,341.000C168.977,341.000,164.500,336.523,164.500,331.000C164.500,325.477,168.977,321.000,174.500,321.000C180.023,321.000,184.500,325.477,184.500,331.000ZZ" style="fill: none; stroke-width: 3.2; stroke: rgb(0, 0, 0); stroke-opacity: 1;"/></g></g></g></g><g id="shape-3a72b7e3-64a8-8096-8003-b94e9f73987d"><g class="fills" id="fills-3a72b7e3-64a8-8096-8003-b94e9f73987d"><path rx="0" ry="0" d="M165.500,425.000C165.500,428.314,162.814,431.000,159.500,431.000C156.186,431.000,153.500,428.314,153.500,425.000C153.500,421.686,156.186,419.000,159.500,419.000C162.814,419.000,165.500,421.686,165.500,425.000ZZ" style="fill: rgb(247, 148, 30);"/></g></g><g id="shape-3a72b7e3-64a8-8096-8003-b94e9f7426cb" rx="0" ry="0" style="fill: rgb(0, 0, 0);"><g id="shape-3a72b7e3-64a8-8096-8003-b94e9f7497b4"><g class="fills" id="fills-3a72b7e3-64a8-8096-8003-b94e9f7497b4"><path fill="none" x="-131" y="36" rx="0" ry="0" d="M169.500,425.000C169.500,430.523,165.023,435.000,159.500,435.000C153.977,435.000,149.500,430.523,149.500,425.000C149.500,419.477,153.977,415.000,159.500,415.000C165.023,415.000,169.500,419.477,169.500,425.000ZZ" style="fill: none;"/></g><g id="strokes-3a72b7e3-64a8-8096-8003-b94e9f7497b4" class="strokes"><g class="stroke-shape"><path x="-131" y="36" rx="0" ry="0" d="M169.500,425.000C169.500,430.523,165.023,435.000,159.500,435.000C153.977,435.000,149.500,430.523,149.500,425.000C149.500,419.477,153.977,415.000,159.500,415.000C165.023,415.000,169.500,419.477,169.500,425.000ZZ" style="fill: none; stroke-width: 3.2; stroke: rgb(0, 0, 0); stroke-opacity: 1;"/></g></g></g></g><g id="shape-3a72b7e3-64a8-8096-8003-b94e9f753a39" rx="0" ry="0" style="fill: rgb(0, 0, 0);"><g id="shape-3a72b7e3-64a8-8096-8003-b94e9f7696fe"><g class="fills" id="fills-3a72b7e3-64a8-8096-8003-b94e9f7696fe"><path rx="0" ry="0" d="M514.340,348.960C514.340,335.360,509.540,332.000,496.740,332.000L466.980,332.000C459.940,332.000,455.940,333.280,453.380,338.560C450.820,333.280,446.820,332.000,439.780,332.000L409.540,332.000C396.740,332.000,391.940,335.360,391.940,348.960L391.940,420.000L402.820,420.000L402.820,349.280C402.820,344.160,404.260,342.080,410.180,342.080L440.740,342.080C446.660,342.080,448.100,344.160,448.100,349.280L448.100,420.000L458.820,420.000L458.820,349.280C458.820,344.160,460.260,342.080,466.180,342.080L496.260,342.080C502.180,342.080,503.620,344.160,503.620,349.280L503.620,420.000L514.340,420.000Z"/></g></g></g><g id="shape-3a72b7e3-64a8-8096-8003-b94e9f78b712"><g class="fills" id="fills-3a72b7e3-64a8-8096-8003-b94e9f78b712"><path rx="0" ry="0" d="M554.500,332.000L525.380,332.000L525.380,342.080L543.780,342.080L543.780,420.000L554.500,420.000ZM554.500,304.480L543.780,304.480L543.780,314.560L554.500,314.560ZM616.420,410.080L599.940,410.080C594.020,410.080,592.580,408.000,592.580,402.880L592.580,342.080L616.420,342.080L616.420,332.000L592.580,332.000L592.580,299.040L581.700,299.040L581.700,332.000L567.140,332.000L567.140,342.080L581.700,342.080L581.700,403.040C581.700,416.640,586.500,420.000,599.300,420.000L616.420,420.000Z"/></g></g><g id="shape-3a72b7e3-64a8-8096-8003-b94e9f78e55d" rx="0" ry="0" style="fill: rgb(0, 0, 0);"><g id="shape-3a72b7e3-64a8-8096-8003-b94e9f7b19d1"><g class="fills" id="fills-3a72b7e3-64a8-8096-8003-b94e9f7b19d1"><path x="236" rx="0" ry="0" d="M750.340,348.960C750.340,335.360,745.540,332.000,732.740,332.000L702.980,332.000C695.940,332.000,691.940,333.280,689.380,338.560C686.820,333.280,682.820,332.000,675.780,332.000L645.540,332.000C632.740,332.000,627.940,335.360,627.940,348.960L627.940,420.000L638.820,420.000L638.820,349.280C638.820,344.160,640.260,342.080,646.180,342.080L676.740,342.080C682.660,342.080,684.100,344.160,684.100,349.280L684.100,420.000L694.820,420.000L694.820,349.280C694.820,344.160,696.260,342.080,702.180,342.080L732.260,342.080C738.180,342.080,739.620,344.160,739.620,349.280L739.620,420.000L750.340,420.000Z"/></g></g></g><g id="shape-3a72b7e3-64a8-8096-8003-b94e9f7ec0ed"><g class="fills" id="fills-3a72b7e3-64a8-8096-8003-b94e9f7ec0ed"><path rx="0" ry="0" d="M825.860,420.000C838.660,420.000,843.460,416.640,843.460,403.040L843.460,348.960C843.460,335.360,838.660,332.000,825.860,332.000L786.980,332.000C774.180,332.000,769.380,335.360,769.380,348.960L769.380,452.000L780.260,452.000L780.260,420.000ZM832.740,402.880C832.740,408.000,831.300,410.080,825.380,410.080L780.260,410.080L780.260,349.280C780.260,344.160,781.700,342.080,787.620,342.080L825.380,342.080C831.300,342.080,832.740,344.160,832.740,349.280ZM873.220,349.280C873.220,344.160,874.660,342.080,880.580,342.080L915.940,342.080L915.940,332.000L879.940,332.000C867.140,332.000,862.340,335.360,862.340,348.960L862.340,420.000L873.220,420.000ZM983.140,420.000C995.940,420.000,1000.740,416.640,1000.740,403.040L1000.740,348.960C1000.740,335.360,995.940,332.000,983.140,332.000L944.260,332.000C931.460,332.000,926.660,335.360,926.660,348.960L926.660,403.040C926.660,416.640,931.460,420.000,944.260,420.000ZM990.020,402.880C990.020,408.000,988.580,410.080,982.660,410.080L944.900,410.080C938.980,410.080,937.540,408.000,937.540,402.880L937.540,349.280C937.540,344.160,938.980,342.080,944.900,342.080L982.660,342.080C988.580,342.080,990.020,344.160,990.020,349.280ZM1050.180,376.320L1077.220,332.000L1065.700,332.000L1044.260,366.720L1023.300,332.000L1011.780,332.000L1038.500,376.320L1011.940,420.000L1023.460,420.000L1044.260,386.080L1065.060,420.000L1076.580,420.000ZM1153.400,332.000L1142.520,332.000L1117.720,404.640L1092.120,332.000L1080.600,332.000L1112.600,420.000L1101.880,452.000L1111.800,452.000Z"/></g></g><g id="shape-3a72b7e3-64a8-8096-8003-b94e9f7ec0ee"><defs rx="0" ry="0" style="fill: rgb(0, 0, 0);"/></g></g></g></g></g></svg>